<svg width="201" height="56" viewBox="0 0 201 56" fill="none" xmlns="http://www.w3.org/2000/svg">
<path d="M58.6207 23.736V32.25H56.6407V19.65H58.6207L63.4987 28.11V19.65H65.4967V32.25H63.4987L58.6207 23.736ZM69.1577 21.594L68.0417 21.558V19.65H71.1377V32.25H69.1577V21.594ZM73.9903 19.65H80.0023V21.63H75.9703V24.816H78.4903L77.8423 26.706H75.9703V32.25H73.9903V19.65ZM83.2994 21.648H80.7074V19.65H87.9434V21.648H85.2794V32.25H83.2994V21.648ZM93.4756 31.08C93.8716 31.032 94.1956 30.882 94.4476 30.63C94.6996 30.378 94.8256 29.934 94.8256 29.298V28.29C94.2256 28.59 93.5956 28.74 92.9356 28.74C92.1196 28.74 91.3996 28.584 90.7756 28.272C90.1516 27.948 89.6656 27.492 89.3176 26.904C88.9816 26.304 88.8136 25.608 88.8136 24.816V19.65H90.7936V24.636C90.7936 25.38 90.9736 25.926 91.3336 26.274C91.6936 26.622 92.2276 26.796 92.9356 26.796C93.3316 26.796 93.6556 26.754 93.9076 26.67C94.1716 26.586 94.3516 26.502 94.4476 26.418C94.5556 26.334 94.6816 26.22 94.8256 26.076V19.65H96.8056V29.442C96.8056 30.39 96.6016 31.128 96.1936 31.656C95.7856 32.184 95.0896 32.496 94.1056 32.592L93.4756 31.08Z" fill="white"/>
<rect y="0.5" width="49.0992" height="55" rx="10" fill="url(#paint0_linear_14_971)"/>
<path d="M37.3588 28C37.3588 36.1006 31.5203 42.4688 24.5496 42.4688C17.579 42.4688 11.7405 36.1006 11.7405 28C11.7405 19.8994 17.579 13.5312 24.5496 13.5312C31.5203 13.5312 37.3588 19.8994 37.3588 28Z" stroke="#1B1A21" stroke-width="2"/>
<defs>
<linearGradient id="paint0_linear_14_971" x1="16.0688" y1="0.500001" x2="57.4753" y2="7.76566" gradientUnits="userSpaceOnUse">
<stop stop-color="#EB1484"/>
<stop offset="0.9999" stop-color="#C91CC3"/>
<stop offset="1" stop-color="#C81CC5"/>
<stop offset="1" stop-color="#C81CC5"/>
</linearGradient>
</defs>
</svg>
